<svg width="28" height="27" viewBox="0 0 28 27" fill="none" xmlns="http://www.w3.org/2000/svg">
<path id="* (Stroke)" fill-rule="evenodd" clip-rule="evenodd" d="M10.8544 27C9.99211 27 9.30736 26.2748 9.35684 25.4139L9.5988 21.2039L6.08391 23.5233C5.362 23.9997 4.38789 23.7684 3.95708 23.0184L0.789663 17.5044C0.360791 16.7578 0.64708 15.8042 1.41626 15.4172L5.17411 13.5268L1.42019 11.6385C0.653948 11.253 0.366366 10.3047 0.789461 9.55855L3.94923 3.98634C4.3775 3.2311 5.35553 2.99608 6.08019 3.47425L9.5988 5.79606L9.35684 1.58607C9.30736 0.725228 9.9921 0 10.8544 0H17.164C18.0243 0 18.7083 0.722013 18.6618 1.58102L18.4332 5.80641L21.9708 3.47211C22.6978 2.99235 23.6793 3.23071 24.1053 3.99051L27.2312 9.56553C27.6488 10.3104 27.3612 11.2532 26.5989 11.6381L22.8585 13.5268L26.6028 15.4176C27.368 15.804 27.6543 16.7519 27.231 17.4973L24.0975 23.0143C23.6689 23.7688 22.6914 24.0034 21.9671 23.5254L18.4332 21.1936L18.6618 25.419C18.7083 26.278 18.0243 27 17.164 27H10.8544ZM15.9453 16.8562L22.5371 21.2058L24.8855 17.071L17.8668 13.5268L24.8855 9.9827L22.5371 5.79415L15.9453 10.1438L16.3723 2.25H11.6487L12.1024 10.1438L5.51067 5.79415L3.13552 9.9827L10.1809 13.5268L3.13552 17.071L5.51067 21.2058L12.1024 16.8562L11.6487 24.75H16.3723L15.9453 16.8562Z" fill="white"/>
</svg>
