<svg width="39" height="39" viewBox="0 0 39 39" fill="none" xmlns="http://www.w3.org/2000/svg">
<g id="fluent-emoji-high-contrast:barber-pole">
<g id="Group">
<path id="Vector" d="M17.3994 3.18188H20.3029C22.1366 3.18188 23.6177 4.67475 23.6177 6.49676V6.52027H23.6648C25.2517 6.52027 26.5329 7.80155 26.5329 9.38846C26.5329 10.9754 25.2517 12.2566 23.6648 12.2566H19.7856L14.1433 14.9838V12.2566H14.0728C12.4859 12.2566 11.2046 10.9754 11.2046 9.38846C11.2046 7.80155 12.4859 6.52027 14.0728 6.52027H14.0845V6.49676C14.0845 4.663 15.5656 3.18188 17.3994 3.18188ZM23.6765 16.9586L14.1433 21.5783V24.1173L23.6765 19.5094V16.9586ZM23.6648 30.3827H20.0525L23.6765 28.6312V26.0921L14.8004 30.3827H14.0728C12.4859 30.3827 11.2046 31.6639 11.2046 33.2508C11.2046 34.8378 12.4859 36.119 14.0728 36.119H23.6648C25.2517 36.119 26.5329 34.8378 26.5329 33.2508C26.5329 31.6639 25.2517 30.3827 23.6648 30.3827Z" fill="white"/>
<path id="Vector_2" d="M14.1436 17.0056L23.6768 12.3977V14.9368L14.1436 19.5447V17.0056ZM14.1436 26.1392L23.6768 21.5312V24.0703L14.1436 28.6782V26.1392Z" fill="white"/>
</g>
</g>
</svg>
