<svg width="125" height="11" viewBox="0 0 125 11" fill="none" xmlns="http://www.w3.org/2000/svg">
<path id="Vector" d="M0 10.9507V0.887695H4.39453V10.9507H0ZM6.55688 10.9436V0.887695H8.78906V10.9436H6.55688ZM13.1836 10.9436V0.887695H15.3459V10.9436H13.1836ZM24.135 10.9436V0.887695H26.2974V10.9436H24.135ZM32.9241 10.9436V0.887695H37.2488V10.9436H32.9241ZM43.8755 10.9436V0.887695H46.0378V10.9436H43.8755ZM48.27 10.9436V0.887695H50.4324V10.9436H48.27ZM52.6646 10.9436V0.887695H54.8269V10.9436H52.6646ZM61.384 10.9436V0.887695H65.7786V10.9436H61.384ZM72.3354 10.9436V0.887695H76.73V10.9436H72.3354ZM81.1243 10.9436V0.887695H85.519V10.9436H81.1243ZM89.9136 10.9436V0.887695H94.3083V10.9436H89.9136ZM96.4705 10.9436V0.887695H100.865V10.9436H96.4705ZM107.492 10.9436V0.887695H114.049V10.9436H107.492ZM116.211 10.9436V0.887695H118.443V10.9436H116.211ZM120.605 10.9507V0.887695H125V10.9507H120.605Z" fill="#777777"/>
</svg>
