<svg width="86" height="89" viewBox="0 0 86 89" fill="none" xmlns="http://www.w3.org/2000/svg">
<path id="Vector" fill-rule="evenodd" clip-rule="evenodd" d="M54.8928 1.0859L5.82542 4.66664C1.86689 5.00482 0.489746 7.56049 0.489746 10.6234V63.7694C0.489746 66.1551 1.34725 68.1964 3.41607 70.9247L14.9502 85.7427C16.8453 88.1283 18.5682 88.64 22.1863 88.47L79.1672 85.0619C83.985 84.7228 85.3657 82.5062 85.3657 78.7599V18.9703C85.3657 17.0341 84.5915 16.476 82.3125 14.8236L66.2585 3.64069C62.4694 0.918561 60.9202 0.575118 54.8928 1.0859ZM23.4747 17.9917C18.8219 18.3009 17.7666 18.371 15.124 16.2482L8.40591 10.9686C7.7231 10.2852 8.06628 9.43277 9.7866 9.2628L56.9563 5.85729C60.9175 5.5156 62.9802 6.87974 64.5293 8.07127L72.6193 13.8625C72.9651 14.0351 73.8253 15.054 72.7904 15.054L24.0777 17.9514L23.4747 17.9917ZM18.0504 78.2491V27.4924C18.0504 25.2758 18.7394 24.2534 20.802 24.0816L76.7516 20.8452C78.6493 20.6761 79.5068 21.8677 79.5068 24.0808V74.4993C79.5068 76.7159 79.161 78.5908 76.0635 78.7599L22.5232 81.8264C19.4257 81.9955 18.0504 80.9765 18.0504 78.2491ZM70.9016 30.2137C71.2448 31.7469 70.9016 33.2801 69.3498 33.4553L66.7693 33.9609V71.4355C64.5284 72.627 62.4658 73.3078 60.742 73.3078C57.9868 73.3078 57.2986 72.4553 55.2351 69.9023L38.36 43.671V69.0498L43.6983 70.2439C43.6983 70.2439 43.6983 73.3104 39.3913 73.3104L27.5175 73.9911C27.1716 73.3078 27.5175 71.6055 28.7208 71.2664L31.8219 70.4165V36.8608L27.5184 36.5165C27.1725 34.9833 28.0327 32.7693 30.4447 32.5976L43.1849 31.7504L60.7428 58.3207V34.8142L56.2673 34.3061C55.9215 32.4285 57.2986 31.0644 59.019 30.8979L70.9016 30.2137Z" fill="white"/>
</svg>
