<svg xmlns="http://www.w3.org/2000/svg" width="152" height="25" viewBox="0 0 152 25" fill="none">
<path d="M18.4105 24.0239H0.462524V0.0625H18.4418C24.2115 0.0625 27.7982 1.6105 27.7982 5.70615C27.7982 8.64091 25.9893 10.8338 21.9348 11.3176V11.3499C26.3323 11.8337 28.921 14.1233 28.921 17.4773C28.921 22.476 24.3675 24.0239 18.4105 24.0239ZM8.7898 5.86738V9.44723H16.8511C19.0343 9.44723 20.0012 8.89889 20.0012 7.7056C20.0012 6.44797 19.1279 5.86738 17.1942 5.86738H8.7898ZM8.7898 14.1556V18.219H16.9447C19.315 18.219 20.3754 17.6063 20.3754 16.1873C20.3754 14.8328 19.2214 14.1556 16.6016 14.1556H8.7898Z" fill="white"/>
<path d="M122.55 24.27H101.8V0.308594L122.55 0.317535V6.41616H108.678V9.08782H122.55V11.9953V15.03H115.249H108.678V16.7446H122.55V24.27Z" fill="white"/>
<path d="M57.0106 24.2617H48.6215V0.300293H65.3997C74.1329 0.300293 77.2519 3.42854 77.2519 7.62093C77.2519 10.9749 75.1309 13.2323 71.4815 13.974V14.0063C74.1642 14.7158 75.256 15.6188 76.0351 19.2307L76.3478 20.553C76.7217 22.2945 77.033 23.1329 77.5021 24.2617H68.924C68.6126 23.649 68.425 23.0039 67.9885 20.9399L67.6772 19.5209C67.3658 18.0053 66.1489 17.2957 62.7497 17.2957H57.0106V24.2617ZM57.0106 6.16967V11.7488H64.9007C67.4895 11.7488 68.8941 10.6524 68.8941 8.78196C68.8941 7.04048 67.4895 6.16967 64.9007 6.16967H57.0106Z" fill="white"/>
<path d="M54.3087 23.9614H45.1079L43.392 19.7045H31.2597L29.5451 23.9614H20.3753L31.5099 0H43.0181L54.3087 23.9614ZM37.0614 5.41792L33.412 14.3833H41.2723L37.6542 5.41792L37.3727 4.74074H37.3102L37.0614 5.41792Z" fill="white"/>
<path d="M93.8085 24.2617H75.8596V0.300293H93.8384C99.6089 0.300293 103.196 1.84829 103.196 5.94395C103.196 8.87871 101.387 11.0716 97.3328 11.5555V11.5877C101.73 12.0714 104.319 14.3611 104.319 17.7151C104.319 22.7138 99.7652 24.2617 93.8085 24.2617ZM84.1875 6.10533V9.68503H92.249C94.4313 9.68503 95.398 9.13668 95.398 7.9434C95.398 6.68577 94.5251 6.10533 92.5916 6.10533H84.1875ZM84.1875 14.3934V18.4568H92.3415C94.7127 18.4568 95.7733 17.8441 95.7733 16.4251C95.7733 15.0707 94.6189 14.3934 91.9988 14.3934H84.1875Z" fill="white"/>
<path d="M130.94 24.27H122.55V0.308594H139.33C148.063 0.308594 151.181 3.43684 151.181 7.62923C151.181 10.9832 149.061 13.2406 145.412 13.9823V14.0146C148.095 14.7241 149.185 15.6271 149.965 19.239L150.277 20.5613C150.652 22.3027 150.963 23.1412 151.431 24.27H142.854C142.543 23.6573 142.355 23.0122 141.919 20.9482L141.606 19.5292C141.295 18.0136 140.078 17.304 136.679 17.304H130.94V24.27ZM130.94 6.17797V11.7571H138.831C141.42 11.7571 142.823 10.6607 142.823 8.79027C142.823 7.04879 141.42 6.17797 138.831 6.17797H130.94Z" fill="white"/>
</svg>