<svg aria-hidden="true" style="position: absolute; width: 0; height: 0; overflow: hidden;" version="1.1" xmlns="http://www.w3.org/2000/svg" xmlns:xlink="http://www.w3.org/1999/xlink">
<defs>

<!-- Burger width="53" height="32" --> 
<symbol id="icon-burger"  viewBox="0 0 53 32">
    <path stroke-linejoin="miter" stroke-linecap="butt" stroke-miterlimit="4" stroke-width="1.6382" d="M0 8.191h52.422M0 24.573h52.422"></path>
</symbol>

<!-- Website Logo width="152" height="25" -->
<symbol id="icon-logo"  viewBox="0 0 195 32" style="background-color: marroon;">
    <path d="M23.565 30.751h-22.973v-30.671h23.013c7.385 0 11.976 1.981 11.976 7.224 0 3.756-2.315 6.563-7.505 7.183v0.041c5.629 0.619 8.942 3.55 8.942 7.843 0 6.398-5.828 8.38-13.453 8.38zM11.251 7.51v4.582h10.318c2.794 0 4.032-0.702 4.032-2.229 0-1.61-1.118-2.353-3.593-2.353h-10.758zM11.251 18.119v5.201h10.438c3.034 0 4.391-0.784 4.391-2.601 0-1.734-1.477-2.601-4.83-2.601h-9.999z"></path>
    <path d="M156.864 31.066h-26.56v-30.671l26.56 0.011v7.806h-17.756v3.42h17.756v7.606h-17.756v2.195h17.756v9.633z"></path>
    <path d="M72.974 31.055h-10.738v-30.671h21.476c11.178 0 15.171 4.004 15.171 9.37 0 4.293-2.715 7.183-7.386 8.132v0.041c3.434 0.908 4.831 2.064 5.829 6.687l0.4 1.693c0.479 2.229 0.877 3.302 1.478 4.747h-10.98c-0.399-0.784-0.639-1.61-1.197-4.252l-0.398-1.816c-0.399-1.94-1.956-2.848-6.307-2.848h-7.346v8.916zM72.974 7.897v7.141h10.099c3.314 0 5.112-1.403 5.112-3.798 0-2.229-1.798-3.344-5.112-3.344h-10.099z"></path>
    <path d="M69.515 30.671h-11.777l-2.196-5.449h-15.529l-2.195 5.449h-11.737l14.252-30.671h14.73l14.452 30.671zM47.439 6.935l-4.671 11.476h10.061l-4.631-11.476-0.36-0.867h-0.080l-0.318 0.867z"></path>
    <path d="M120.075 31.055h-22.975v-30.671h23.013c7.386 0 11.978 1.981 11.978 7.224 0 3.756-2.316 6.563-7.505 7.183v0.041c5.628 0.619 8.942 3.55 8.942 7.843 0 6.398-5.829 8.38-13.453 8.38zM107.76 7.815v4.582h10.319c2.793 0 4.031-0.702 4.031-2.229 0-1.61-1.117-2.353-3.592-2.353h-10.757zM107.76 18.424v5.201h10.437c3.035 0 4.393-0.784 4.393-2.601 0-1.734-1.478-2.601-4.831-2.601h-9.998z"></path>
    <path d="M167.603 31.066h-10.739v-30.671h21.478c11.178 0 15.169 4.004 15.169 9.37 0 4.293-2.714 7.183-7.384 8.132v0.041c3.434 0.908 4.829 2.064 5.828 6.687l0.399 1.693c0.48 2.229 0.878 3.302 1.477 4.747h-10.979c-0.398-0.784-0.639-1.61-1.197-4.252l-0.401-1.816c-0.398-1.94-1.956-2.848-6.307-2.848h-7.346v8.916zM167.603 7.908v7.141h10.1c3.314 0 5.11-1.403 5.11-3.798 0-2.229-1.796-3.344-5.11-3.344h-10.1z"></path>
</symbol>
</defs>
</svg>
