<svg width="39" height="39" viewBox="0 0 39 39" fill="none" xmlns="http://www.w3.org/2000/svg">
<g id="Frame 1000002321">
<path id="Vector" d="M20.2969 1.57935C16.6173 1.57935 13.0884 3.04106 10.4865 5.64294C7.8846 8.24482 6.42288 11.7737 6.42288 15.4533V24.7027C6.42288 25.9292 6.91012 27.1055 7.77741 27.9728C8.64471 28.8401 9.82101 29.3273 11.0475 29.3273H13.178C13.7506 29.3273 14.312 29.1678 14.7991 28.8666C15.2862 28.5655 15.6798 28.1346 15.9358 27.6224L16.2056 27.0828C15.707 26.7347 15.2406 26.3426 14.812 25.9112C13.1179 24.2063 11.8183 21.7028 11.8183 18.5364C11.8183 17.4034 12.0095 16.2765 12.3563 15.2113C12.5105 14.7381 12.9375 14.6826 13.3599 14.6826C15.9651 14.6826 18.2697 13.3892 19.6664 11.4068C19.7375 11.3056 19.8319 11.2231 19.9417 11.1661C20.0514 11.1091 20.1732 11.0793 20.2969 11.0793C20.4205 11.0793 20.5424 11.1091 20.6521 11.1661C20.7618 11.2231 20.8562 11.3056 20.9274 11.4068C21.6379 12.4194 22.5821 13.2458 23.6799 13.8161C24.7777 14.3863 25.9968 14.6835 27.2339 14.6826C27.6562 14.6826 28.0848 14.7381 28.2374 15.2113C28.5897 16.2847 28.7712 17.4067 28.7754 18.5364C28.7754 21.7043 27.4759 24.2063 25.7817 25.9112C25.3424 26.3537 24.8722 26.7452 24.3882 27.0828L24.6579 27.6224C24.9139 28.1346 25.3075 28.5655 25.7946 28.8666C26.2817 29.1678 26.8431 29.3273 27.4158 29.3273H29.5462C30.7727 29.3273 31.949 28.8401 32.8163 27.9728C33.6836 27.1055 34.1709 25.9292 34.1709 24.7027V15.4533C34.1709 11.7737 32.7091 8.24482 30.1073 5.64294C27.5054 3.04106 23.9765 1.57935 20.2969 1.57935Z" fill="white"/>
</g>
</svg>
