<svg aria-hidden="true" style="position: absolute; width: 0; height: 0; overflow: hidden;" version="1.1" xmlns="http://www.w3.org/2000/svg" xmlns:xlink="http://www.w3.org/1999/xlink">
<defs>

<!-- Burger width="53" height="32" --> 
<symbol id="icon-burger"  viewBox="0 0 53 32">
    <path stroke-linejoin="miter" stroke-linecap="butt" stroke-miterlimit="4" stroke-width="1.6382" d="M0 8.191h52.422M0 24.573h52.422"></path>
</symbol>

<!-- Website Logo width="152" height="25" -->
<symbol id="icon-logo-desktop"  viewBox="0 0 195 32" style="background-color: marroon;">
    <path d="M23.565 30.751h-22.973v-30.671h23.013c7.385 0 11.976 1.981 11.976 7.224 0 3.756-2.315 6.563-7.505 7.183v0.041c5.629 0.619 8.942 3.55 8.942 7.843 0 6.398-5.828 8.38-13.453 8.38zM11.251 7.51v4.582h10.318c2.794 0 4.032-0.702 4.032-2.229 0-1.61-1.118-2.353-3.593-2.353h-10.758zM11.251 18.119v5.201h10.438c3.034 0 4.391-0.784 4.391-2.601 0-1.734-1.477-2.601-4.83-2.601h-9.999z"></path>
    <path d="M156.864 31.066h-26.56v-30.671l26.56 0.011v7.806h-17.756v3.42h17.756v7.606h-17.756v2.195h17.756v9.633z"></path>
    <path d="M72.974 31.055h-10.738v-30.671h21.476c11.178 0 15.171 4.004 15.171 9.37 0 4.293-2.715 7.183-7.386 8.132v0.041c3.434 0.908 4.831 2.064 5.829 6.687l0.4 1.693c0.479 2.229 0.877 3.302 1.478 4.747h-10.98c-0.399-0.784-0.639-1.61-1.197-4.252l-0.398-1.816c-0.399-1.94-1.956-2.848-6.307-2.848h-7.346v8.916zM72.974 7.897v7.141h10.099c3.314 0 5.112-1.403 5.112-3.798 0-2.229-1.798-3.344-5.112-3.344h-10.099z"></path>
    <path d="M69.515 30.671h-11.777l-2.196-5.449h-15.529l-2.195 5.449h-11.737l14.252-30.671h14.73l14.452 30.671zM47.439 6.935l-4.671 11.476h10.061l-4.631-11.476-0.36-0.867h-0.080l-0.318 0.867z"></path>
    <path d="M120.075 31.055h-22.975v-30.671h23.013c7.386 0 11.978 1.981 11.978 7.224 0 3.756-2.316 6.563-7.505 7.183v0.041c5.628 0.619 8.942 3.55 8.942 7.843 0 6.398-5.829 8.38-13.453 8.38zM107.76 7.815v4.582h10.319c2.793 0 4.031-0.702 4.031-2.229 0-1.61-1.117-2.353-3.592-2.353h-10.757zM107.76 18.424v5.201h10.437c3.035 0 4.393-0.784 4.393-2.601 0-1.734-1.478-2.601-4.831-2.601h-9.998z"></path>
    <path d="M167.603 31.066h-10.739v-30.671h21.478c11.178 0 15.169 4.004 15.169 9.37 0 4.293-2.714 7.183-7.384 8.132v0.041c3.434 0.908 4.829 2.064 5.828 6.687l0.399 1.693c0.48 2.229 0.878 3.302 1.477 4.747h-10.979c-0.398-0.784-0.639-1.61-1.197-4.252l-0.401-1.816c-0.398-1.94-1.956-2.848-6.307-2.848h-7.346v8.916zM167.603 7.908v7.141h10.1c3.314 0 5.11-1.403 5.11-3.798 0-2.229-1.796-3.344-5.11-3.344h-10.1z"></path>
</symbol>

<!-- Logo Tablet width="146" height="28" -->
<symbol id="icon-logo-tablet" viewBox="0 0 167 32" >
    <path d="M19.837 31.059h-19.837v-30.979h19.871c6.377 0 10.341 2.001 10.341 7.297 0 3.794-1.999 6.629-6.481 7.255v0.042c4.86 0.625 7.721 3.586 7.721 7.922 0 6.463-5.033 8.464-11.617 8.464zM9.204 7.585v4.628h8.91c2.413 0 3.482-0.709 3.482-2.252 0-1.626-0.965-2.377-3.102-2.377h-9.289zM9.204 18.3v5.253h9.013c2.62 0 3.792-0.792 3.792-2.627 0-1.751-1.275-2.627-4.171-2.627h-8.634z"></path>
    <path d="M134.937 31.378h-22.934v-30.979l22.934 0.012v7.885h-15.333v3.454h15.333v7.683h-15.333v2.217h15.333v9.73z"></path>
    <path d="M62.499 31.368h-9.272v-30.979h18.544c9.652 0 13.1 4.044 13.1 9.465 0 4.336-2.344 7.255-6.378 8.214v0.042c2.965 0.917 4.172 2.085 5.033 6.755l0.346 1.709c0.413 2.252 0.757 3.336 1.276 4.795h-9.481c-0.344-0.792-0.552-1.626-1.034-4.294l-0.344-1.835c-0.344-1.96-1.689-2.877-5.446-2.877h-6.343v9.006zM62.499 7.977v7.213h8.721c2.861 0 4.414-1.418 4.414-3.836 0-2.252-1.552-3.377-4.414-3.377h-8.721z"></path>
    <path d="M59.513 30.979h-10.169l-1.897-5.504h-13.409l-1.895 5.504h-10.135l12.306-30.979h12.719l12.479 30.979zM40.451 7.005l-4.033 11.591h8.688l-3.999-11.591-0.311-0.876h-0.069l-0.275 0.876z"></path>
    <path d="M103.17 31.368h-19.838v-30.979h19.871c6.378 0 10.342 2.001 10.342 7.297 0 3.794-1.999 6.63-6.48 7.255v0.042c4.86 0.625 7.721 3.586 7.721 7.922 0 6.463-5.032 8.464-11.616 8.464zM92.537 7.894v4.628h8.91c2.412 0 3.48-0.709 3.48-2.252 0-1.626-0.965-2.376-3.102-2.376h-9.289zM92.537 18.609v5.253h9.012c2.621 0 3.793-0.792 3.793-2.627 0-1.751-1.276-2.627-4.172-2.627h-8.633z"></path>
    <path d="M144.209 31.378h-9.272v-30.979h18.545c9.653 0 13.098 4.044 13.098 9.465 0 4.336-2.343 7.255-6.376 8.214v0.042c2.965 0.917 4.17 2.085 5.033 6.755l0.344 1.71c0.415 2.252 0.759 3.335 1.275 4.795h-9.479c-0.345-0.792-0.552-1.626-1.034-4.295l-0.346-1.834c-0.344-1.96-1.688-2.877-5.446-2.877h-6.343v9.006zM144.209 7.987v7.213h8.722c2.861 0 4.411-1.418 4.411-3.836 0-2.252-1.551-3.377-4.411-3.377h-8.722z"></path>
</symbol>

<!-- Logo Mobile width="82" height="18" -->
<symbol id="icon-logo-mobile" viewBox="0 0 138 32" >
    <path d="M16.419 31.414h-16.419v-31.14h16.447c5.278 0 8.559 2.012 8.559 7.334 0 3.814-1.655 6.664-5.364 7.293v0.042c4.023 0.629 6.391 3.604 6.391 7.963 0 6.496-4.166 8.508-9.615 8.508zM7.618 7.818v4.652h7.374c1.997 0 2.882-0.713 2.882-2.263 0-1.634-0.799-2.389-2.568-2.389h-7.688zM7.618 18.589v5.281h7.46c2.168 0 3.138-0.796 3.138-2.64 0-1.76-1.056-2.64-3.452-2.64h-7.146z"></path>
    <path d="M111.685 31.735h-18.982v-31.14l18.982 0.012v7.926h-12.691v3.472h12.691v7.722h-12.691v2.228h12.691v9.78z"></path>
    <path d="M51.73 31.724h-7.674v-31.14h15.349c7.989 0 10.842 4.065 10.842 9.514 0 4.359-1.94 7.293-5.279 8.256v0.042c2.454 0.922 3.453 2.096 4.166 6.79l0.286 1.719c0.342 2.263 0.627 3.353 1.056 4.82h-7.847c-0.285-0.796-0.456-1.635-0.856-4.317l-0.285-1.844c-0.285-1.97-1.398-2.892-4.508-2.892h-5.25v9.053zM51.73 8.212v7.251h7.218c2.368 0 3.653-1.425 3.653-3.856 0-2.263-1.285-3.395-3.653-3.395h-7.218z"></path>
    <path d="M49.258 31.333h-8.417l-1.57-5.532h-11.099l-1.569 5.532h-8.389l10.186-31.14h10.528l10.329 31.14zM33.481 7.234l-3.338 11.651h7.19l-3.31-11.651-0.257-0.88h-0.057l-0.228 0.88z"></path>
    <path d="M85.393 31.724h-16.42v-31.14h16.447c5.279 0 8.56 2.012 8.56 7.334 0 3.814-1.654 6.664-5.363 7.293v0.042c4.022 0.629 6.391 3.604 6.391 7.963 0 6.496-4.166 8.508-9.615 8.508zM76.592 8.128v4.652h7.375c1.996 0 2.881-0.713 2.881-2.263 0-1.634-0.799-2.389-2.567-2.389h-7.688zM76.592 18.899v5.281h7.459c2.169 0 3.139-0.796 3.139-2.64 0-1.76-1.056-2.64-3.453-2.64h-7.146z"></path>
    <path d="M119.36 31.735h-7.674v-31.14h15.35c7.989 0 10.841 4.065 10.841 9.514 0 4.359-1.939 7.292-5.278 8.256v0.042c2.454 0.922 3.452 2.096 4.166 6.79l0.285 1.718c0.343 2.263 0.628 3.353 1.056 4.82h-7.846c-0.285-0.796-0.456-1.635-0.856-4.317l-0.286-1.844c-0.285-1.97-1.398-2.892-4.508-2.892h-5.25v9.053zM119.36 8.222v7.251h7.219c2.368 0 3.652-1.425 3.652-3.856 0-2.263-1.284-3.395-3.652-3.395h-7.219z"></path>
</symbol>

<symbol id="icon-arrow-right"  viewBox="0 0 482 124">
    <path fill="#5D88FF" d="M1.416 0C.852 0 .395.487.395 1.088c0 .6.457 1.087 1.021 1.087V0ZM473.15 123.681a.977.977 0 0 0 1.444 0l6.501-6.922a1.138 1.138 0 0 0 0-1.538.976.976 0 0 0-1.444 0l-5.779 6.153-5.779-6.153a.976.976 0 0 0-1.444 0c-.4.424-.4 1.114 0 1.538l6.501 6.922ZM1.416 2.175H2.95V0H1.416v2.175Zm4.602 0h3.068V0H6.018v2.175Zm6.136 0h3.068V0h-3.068v2.175Zm6.136 0h3.069V0H18.29v2.175Zm6.137 0h3.068V0h-3.068v2.175Zm6.136 0h3.068V0h-3.068v2.175Zm6.136 0h3.068V0h-3.068v2.175Zm6.136 0h3.068V0h-3.068v2.175Zm6.136 0h3.068V0h-3.068v2.175Zm6.136 0h3.069V0h-3.069v2.175Zm6.137 0h3.068V0h-3.068v2.175Zm6.136 0h3.068V0H67.38v2.175Zm6.136 0h3.068V0h-3.068v2.175Zm6.136 0h3.068V0h-3.068v2.175Zm6.136 0h3.068V0h-3.068v2.175Zm6.136 0h3.068V0h-3.068v2.175Zm6.136 0h3.069V0H98.06v2.175Zm6.137 0h3.068V0h-3.068v2.175Zm6.136 0h3.068V0h-3.068v2.175Zm6.135 0h3.069V0h-3.069v2.175Zm6.137 0h3.068V0h-3.068v2.175Zm6.136 0h3.069V0h-3.069v2.175Zm6.136 0h3.068V0h-3.068v2.175Zm6.137 0h3.067V0h-3.067v2.175Zm6.136 0h3.068V0h-3.068v2.175Zm6.136 0h3.068V0h-3.068v2.175Zm6.136 0h3.068V0h-3.068v2.175Zm6.136 0h3.069V0h-3.069v2.175Zm6.136 0h3.068V0h-3.068v2.175Zm6.137 0h3.067V0h-3.067v2.175Zm6.136 0h3.067V0h-3.067v2.175Zm6.136 0h3.068V0h-3.068v2.175Zm6.135 0h3.069V0h-3.069v2.175Zm6.137 0h3.068V0h-3.068v2.175Zm6.136 0h3.068V0h-3.068v2.175Zm6.136 0h3.068V0h-3.068v2.175Zm6.137 0h3.067V0h-3.067v2.175Zm6.136 0h3.068V0h-3.068v2.175Zm6.135 0h3.069V0h-3.069v2.175Zm6.137 0h3.068V0h-3.068v2.175Zm6.136 0h3.067V0h-3.067v2.175Zm6.136 0h3.068V0h-3.068v2.175Zm6.136 0h3.068V0H257.6v2.175Zm6.137 0h3.067V0h-3.067v2.175Zm6.135 0h3.069V0h-3.069v2.175Zm6.136 0h3.069V0h-3.069v2.175Zm6.137 0h3.068V0h-3.068v2.175Zm6.136 0h3.068V0h-3.068v2.175Zm6.136 0h3.068V0h-3.068v2.175Zm6.137 0h3.067V0h-3.067v2.175Zm6.135 0h3.069V0h-3.069v2.175Zm6.136 0h3.069V0h-3.069v2.175Zm6.136 0h3.069V0h-3.069v2.175Zm6.137 0h3.067V0h-3.067v2.175Zm6.136 0h3.068V0h-3.068v2.175Zm6.136 0h3.068V0h-3.068v2.175Zm6.136 0h3.068V0h-3.068v2.175Zm6.136 0h3.069V0h-3.069v2.175Zm6.136 0h3.069V0h-3.069v2.175Zm6.137 0h3.067V0h-3.067v2.175Zm6.136 0h3.067V0h-3.067v2.175Zm6.136 0h3.068V0h-3.068v2.175Zm6.135 0h3.069V0h-3.069v2.175Zm6.137 0h3.068V0h-3.068v2.175Zm6.136 0h3.069V0h-3.069v2.175Zm6.136 0h3.068V0h-3.068v2.175Zm6.137 0h3.067V0h-3.067v2.175Zm6.136 0h3.068V0h-3.068v2.175Zm6.136 0h3.068V0h-3.068v2.175Zm6.136 0h3.068V0h-3.068v2.175Zm6.136 0h3.069V0h-3.069v2.175Zm6.136 0h3.068V0h-3.068v2.175Zm6.137 0h3.067V0h-3.067v2.175Zm6.136 0h1.534V0h-1.534v2.175Zm1.534 0c.517 0 1.031.018 1.54.053l.131-2.17A24.335 24.335 0 0 0 449.355 0v2.175Zm4.587.477a22.21 22.21 0 0 1 2.968.845l.657-2.06a24.179 24.179 0 0 0-3.229-.92l-.396 2.135Zm5.806 2.098a23.085 23.085 0 0 1 2.66 1.639l1.137-1.808a25.178 25.178 0 0 0-2.892-1.782l-.905 1.95Zm5.099 3.633a24.64 24.64 0 0 1 2.173 2.315l1.536-1.435a26.651 26.651 0 0 0-2.362-2.515l-1.347 1.635Zm4.047 4.91c.568.905 1.083 1.851 1.538 2.833l1.832-.963a27.87 27.87 0 0 0-1.672-3.08l-1.698 1.21Zm2.715 5.855c.327 1.026.594 2.08.794 3.161l2.004-.422a28.63 28.63 0 0 0-.863-3.438l-1.935.7Zm1.191 6.406c.034.542.05 1.088.05 1.639h2.043c0-.598-.018-1.19-.054-1.78l-2.039.141Zm.05 1.639v1.595h2.043v-1.595h-2.043Zm0 4.786v3.19h2.043v-3.19h-2.043Zm0 6.381v3.19h2.043v-3.19h-2.043Zm0 6.381v3.191h2.043v-3.19h-2.043Zm0 6.382v3.19h2.043v-3.19h-2.043Zm0 6.381v3.19h2.043v-3.19h-2.043Zm0 6.381v3.19h2.043v-3.19h-2.043Zm0 6.381v3.191h2.043v-3.19h-2.043Zm0 6.382v3.19h2.043v-3.19h-2.043Zm0 6.381v3.19h2.043v-3.19h-2.043Zm0 6.381v3.19h2.043v-3.19h-2.043Zm0 6.382v3.19h2.043v-3.19h-2.043Zm0 6.381v3.191h2.043v-3.191h-2.043Zm0 6.381v3.19h2.043v-3.19h-2.043Zm0 6.382v3.19h2.043v-3.19h-2.043Zm0 6.38v1.596h2.043v-1.596h-2.043Z"/>
    </symbol>

    <symbol id="icon-arrow-left"  viewBox="0 0 480 124" >
    <path d="M478.981 0C479.544 0 480 0.486987 480 1.08772C480 1.68844 479.544 2.17543 478.981 2.17543V0ZM8.22787 123.681C7.83032 124.106 7.18402 124.106 6.78644 123.681L0.29895 116.759C-0.0996399 116.335 -0.0996399 115.645 0.29895 115.221C0.696533 114.795 1.34283 114.795 1.74039 115.221L7.50717 121.374L13.2739 115.221C13.6715 114.795 14.3178 114.795 14.7154 115.221C15.114 115.645 15.114 116.335 14.7154 116.759L8.22787 123.681ZM478.981 2.17543H477.45V0H478.981V2.17543ZM474.388 2.17543H471.326V0H474.388V2.17543ZM468.265 2.17543H465.203V0H468.265V2.17543ZM462.141 2.17543H459.08V0H462.141V2.17543ZM456.018 2.17543H452.956V0H456.018V2.17543ZM449.895 2.17543H446.833V0H449.895V2.17543ZM443.771 2.17543H440.709V0H443.771V2.17543ZM437.648 2.17543H434.586V0H437.648V2.17543ZM431.524 2.17543H428.463V0H431.524V2.17543ZM425.401 2.17543H422.339V0H425.401V2.17543ZM419.277 2.17543H416.216V0H419.277V2.17543ZM413.154 2.17543H410.092V0H413.154V2.17543ZM407.031 2.17543H403.969V0H407.031V2.17543ZM400.907 2.17543H397.846V0H400.907V2.17543ZM394.784 2.17543H391.722V0H394.784V2.17543ZM388.661 2.17543H385.599V0H388.661V2.17543ZM382.537 2.17543H379.475V0H382.537V2.17543ZM376.413 2.17543H373.352V0H376.413V2.17543ZM370.29 2.17543H367.229V0H370.29V2.17543ZM364.167 2.17543H361.105V0H364.167V2.17543ZM358.044 2.17543H354.982V0H358.044V2.17543ZM351.92 2.17543H348.858V0H351.92V2.17543ZM345.797 2.17543H342.735V0H345.797V2.17543ZM339.673 2.17543H336.612V0H339.673V2.17543ZM333.55 2.17543H330.488V0H333.55V2.17543ZM327.426 2.17543H324.365V0H327.426V2.17543ZM321.304 2.17543H318.241V0H321.304V2.17543ZM315.18 2.17543H312.118V0H315.18V2.17543ZM309.056 2.17543H305.995V0H309.056V2.17543ZM302.933 2.17543H299.872V0H302.933V2.17543ZM296.809 2.17543H293.748V0H296.809V2.17543ZM290.686 2.17543H287.625V0H290.686V2.17543ZM284.563 2.17543H281.501V0H284.563V2.17543ZM278.44 2.17543H275.377V0H278.44V2.17543ZM272.316 2.17543H269.255V0H272.316V2.17543ZM266.193 2.17543H263.131V0H266.193V2.17543ZM260.069 2.17543H257.008V0H260.069V2.17543ZM253.946 2.17543H250.884V0H253.946V2.17543ZM247.823 2.17543H244.761V0H247.823V2.17543ZM241.699 2.17543H238.637V0H241.699V2.17543ZM235.576 2.17543H232.515V0H235.576V2.17543ZM229.452 2.17543H226.391V0H229.452V2.17543ZM223.329 2.17543H220.268V0H223.329V2.17543ZM217.205 2.17543H214.144V0H217.205V2.17543ZM211.083 2.17543H208.02V0H211.083V2.17543ZM204.959 2.17543H201.897V0H204.959V2.17543ZM198.836 2.17543H195.773V0H198.836V2.17543ZM192.712 2.17543H189.651V0H192.712V2.17543ZM186.589 2.17543H183.527V0H186.589V2.17543ZM180.465 2.17543H177.404V0H180.465V2.17543ZM174.342 2.17543H171.28V0H174.342V2.17543ZM168.219 2.17543H165.157V0H168.219V2.17543ZM162.095 2.17543H159.033V0H162.095V2.17543ZM155.972 2.17543H152.911V0H155.972V2.17543ZM149.848 2.17543H146.787V0H149.848V2.17543ZM143.725 2.17543H140.664V0H143.725V2.17543ZM137.602 2.17543H134.54V0H137.602V2.17543ZM131.479 2.17543H128.416V0H131.479V2.17543ZM125.355 2.17543H122.293V0H125.355V2.17543ZM119.232 2.17543H116.17V0H119.232V2.17543ZM113.108 2.17543H110.047V0H113.108V2.17543ZM106.984 2.17543H103.923V0H106.984V2.17543ZM100.862 2.17543H97.7997V0H100.862V2.17543ZM94.7384 2.17543H91.6761V0H94.7384V2.17543ZM88.6149 2.17543H85.5526V0H88.6149V2.17543ZM82.4913 2.17543H79.43V0H82.4913V2.17543ZM76.3678 2.17543H73.3065V0H76.3678V2.17543ZM70.2442 2.17543H67.183V0H70.2442V2.17543ZM64.1207 2.17543H61.0594V0H64.1207V2.17543ZM57.9981 2.17543H54.9359V0H57.9981V2.17543ZM51.8746 2.17543H48.8123V0H51.8746V2.17543ZM45.751 2.17543H42.6898V0H45.751V2.17543ZM39.6275 2.17543H36.5663V0H39.6275V2.17543ZM33.504 2.17543H31.9728V0H33.504V2.17543ZM31.9728 2.17543C31.457 2.17543 30.9442 2.19322 30.4366 2.22822L30.3051 0.0573106C30.8566 0.0192937 31.4131 0 31.9728 0V2.17543ZM27.3957 2.65165C26.3834 2.86538 25.3946 3.14868 24.4333 3.49667L23.7778 1.43665C24.8237 1.05812 25.8992 0.750001 27.0002 0.517567L27.3957 2.65165ZM21.6014 4.7498C20.6809 5.23513 19.794 5.78312 18.9469 6.3886L17.8123 4.58088C18.7339 3.92286 19.6972 3.32715 20.6982 2.79945L21.6014 4.7498ZM16.5136 8.38315C15.7449 9.10365 15.0201 9.87702 14.3443 10.6979L12.8121 9.26293C13.5461 8.37108 14.3331 7.5309 15.169 6.74814L16.5136 8.38315ZM12.4747 13.2935C11.9079 14.198 11.3941 15.144 10.9395 16.1262L9.11169 15.1626C9.60611 14.0945 10.1647 13.0662 10.7805 12.0833L12.4747 13.2935ZM9.76514 19.1482C9.43893 20.1736 9.17285 21.2289 8.97305 22.3093L6.97302 21.887C7.19116 20.7122 7.47964 19.5643 7.83441 18.4491L9.76514 19.1482ZM8.57654 25.5541C8.54288 26.0957 8.52655 26.6422 8.52655 27.1929H6.48776C6.48776 26.5953 6.5061 26.0021 6.54181 25.4137L8.57654 25.5541ZM8.52655 27.1929V28.7883H6.48776V27.1929H8.52655ZM8.52655 31.9789V35.1695H6.48776V31.9789H8.52655ZM8.52655 38.3602V41.5508H6.48776V38.3602H8.52655ZM8.52655 44.7414V47.9321H6.48776V44.7414H8.52655ZM8.52655 51.1227V54.3133H6.48776V51.1227H8.52655ZM8.52655 57.504V60.6946H6.48776V57.504H8.52655ZM8.52655 63.8852V67.0759H6.48776V63.8852H8.52655ZM8.52655 70.2665V73.4571H6.48776V70.2665H8.52655ZM8.52655 76.6478V79.8384H6.48776V76.6478H8.52655ZM8.52655 83.029V86.2197H6.48776V83.029H8.52655ZM8.52655 89.4103V92.6009H6.48776V89.4103H8.52655ZM8.52655 95.7916V98.9822H6.48776V95.7916H8.52655ZM8.52655 102.173V105.364H6.48776V102.173H8.52655ZM8.52655 108.554V111.744H6.48776V108.554H8.52655ZM8.52655 114.936V118.126H6.48776V114.936H8.52655ZM8.52655 121.316V122.912H6.48776V121.316H8.52655Z" fill="#5D88FF"/>
</symbol>

<symbol id="icon-lock"  viewBox="0 0 19 27">
    <path d="M9.45311 0.324707C5.29877 0.324707 1.91885 3.7045 1.91885 7.85897V12.1619C1.91885 12.2108 1.8585 12.2932 1.8111 12.309C1.40367 12.4449 1.07278 12.5626 0.769884 12.6794C0.40867 12.8186 0.13623 13.2189 0.13623 13.6105V23.4977C0.13623 23.8866 0.406909 24.2873 0.765835 24.4295C3.54292 25.53 6.46574 26.0878 9.45307 26.0878C12.4404 26.0878 15.3632 25.5298 18.1405 24.4294C18.4992 24.2872 18.7698 23.8866 18.7698 23.4977V13.6105C18.7698 13.2189 18.4974 12.8186 18.136 12.6792C17.833 12.5625 17.5021 12.4447 17.095 12.3089C17.0477 12.2931 16.9874 12.2107 16.9874 12.1618V7.85884C16.9872 3.7045 13.6075 0.324707 9.45311 0.324707ZM7.40097 16.6218C7.40097 15.4877 8.31974 14.5699 9.45298 14.5699C10.5862 14.5699 11.5049 15.4876 11.5049 16.6218C11.5049 17.3733 11.0811 18.0026 10.4789 18.3592V21.7518C10.4789 22.3189 10.0201 22.7778 9.45294 22.7778C8.88579 22.7778 8.42695 22.3189 8.42695 21.7518V18.3592C7.82481 18.0026 7.40097 17.3733 7.40097 16.6218ZM14.3967 7.85884V11.5715C12.7755 11.2227 11.1123 11.046 9.45377 11.0459C7.79598 11.0459 6.13313 11.2226 4.50945 11.5711V7.85884C4.50945 5.1329 6.72708 2.91531 9.45298 2.91531C12.1789 2.91526 14.3967 5.1329 14.3967 7.85884Z" fill="black"/>
</symbol>

<!-- Syllabus card expand/collapse icon -->
<symbol id="icon-arrow" viewBox="0 0 32 32">
    <path stroke-linejoin="miter" stroke-linecap="butt" stroke-miterlimit="4" stroke-width="4.7346" d="M29.726 2.462l-25.251 25.251M4.474 27.713h25.251M4.474 27.713v-25.251"></path>
</symbol>

</defs>
</svg>
