<svg width="29" height="29" viewBox="0 0 29 29" fill="none" xmlns="http://www.w3.org/2000/svg">
<g id="rectangle.portrait.on.rectangle.portrait" clip-path="url(#clip0_82_758)">
<path id="Vector" d="M11.326 19.8767V27.8607C11.326 28.3875 11.9566 28.6492 12.3214 28.2738L14.399 26.1354C14.6267 25.9011 14.9997 25.9011 15.2274 26.1354L17.3051 28.2738C17.6699 28.6492 18.3005 28.3875 18.3005 27.8607V19.8767M12.1508 1.42371L10.8076 1.20759C10.2997 1.12587 9.79909 1.39205 9.57692 1.862L8.98945 3.10473C8.85403 3.39119 8.61016 3.61008 8.31316 3.71175L7.02469 4.15281C6.53744 4.31961 6.21629 4.79098 6.23514 5.31171L6.28499 6.68869C6.29648 7.0061 6.18094 7.31475 5.9646 7.54461L5.02603 8.5418C4.67109 8.9189 4.60295 9.4875 4.85849 9.9397L5.53424 11.1355C5.69001 11.4111 5.72928 11.7388 5.64315 12.0442L5.26949 13.3691C5.12819 13.8701 5.32866 14.4057 5.76236 14.6858L6.9092 15.4264C7.17355 15.5971 7.35864 15.8688 7.42246 16.1798L7.69931 17.5288C7.80401 18.039 8.22717 18.4188 8.73967 18.4626L10.0949 18.5784C10.4073 18.6051 10.6958 18.7586 10.8949 19.0039L11.7588 20.068C12.0856 20.4705 12.6345 20.6075 13.1084 20.405L14.3615 19.8695C14.6503 19.7461 14.9761 19.7461 15.265 19.8695L16.5181 20.405C16.992 20.6075 17.5409 20.4705 17.8676 20.068L18.7316 19.0039C18.9307 18.7586 19.2192 18.6051 19.5316 18.5784L20.8868 18.4626C21.3993 18.4188 21.8224 18.039 21.9271 17.5288L22.204 16.1798C22.2678 15.8688 22.4529 15.5971 22.7173 15.4264L23.8641 14.6858C24.2978 14.4057 24.4983 13.8701 24.357 13.3691L23.9833 12.0442C23.8972 11.7388 23.9365 11.4111 24.0922 11.1355L24.768 9.9397C25.0235 9.4875 24.9554 8.9189 24.6004 8.5418L23.6619 7.5446C23.4455 7.31474 23.33 7.0061 23.3415 6.68869L23.3913 5.31171C23.4102 4.79099 23.089 4.31961 22.6018 4.15281L21.3133 3.71175C21.0163 3.61008 20.7724 3.39119 20.637 3.10473L20.0495 1.862C19.8274 1.39205 19.3268 1.12587 18.8188 1.20759L17.4756 1.42371C17.166 1.47352 16.8497 1.39452 16.5984 1.20464L15.5082 0.380861C15.0959 0.0693357 14.5306 0.0693353 14.1183 0.380861L13.0281 1.20464C12.7768 1.39452 12.4604 1.47352 12.1508 1.42371Z" stroke="black" stroke-width="1.41518"/>
</g>
<defs>
<clipPath id="clip0_82_758">
<rect width="28.8181" height="28.8181" fill="white"/>
</clipPath>
</defs>
</svg>
