<svg width="38" height="39" viewBox="0 0 38 39" fill="none" xmlns="http://www.w3.org/2000/svg">
<g id="list.bullet.rectangle.portrait" clip-path="url(#clip0_82_779)">
<path id="Vector" fill-rule="evenodd" clip-rule="evenodd" d="M7.68553 5.80298V8.93761H20.2241V10.5049H6.11821C4.87117 10.5049 3.67522 11.0003 2.79343 11.8821C1.91164 12.7639 1.41626 13.9598 1.41626 15.2069L1.41626 24.6108C1.41626 25.8578 1.91164 27.0538 2.79343 27.9356C3.67522 28.8173 4.87117 29.3127 6.11821 29.3127H24.926C26.1056 29.3129 27.2421 28.8696 28.1102 28.071C28.9782 27.2723 29.5144 26.1765 29.6123 25.001L39.0319 26.1781V13.6396L29.6123 14.8166C29.5144 13.6411 28.9782 12.5453 28.1102 11.7467C27.2421 10.948 26.1056 10.5048 24.926 10.5049H23.3587V7.37029C23.3587 6.95462 23.1936 6.55596 22.8996 6.26204C22.6057 5.96811 22.2071 5.80298 21.7914 5.80298H7.68553ZM29.628 17.9748V21.8429L35.8972 22.6266V17.1911L29.628 17.9748ZM26.4933 15.2069C26.4933 14.7912 26.3282 14.3925 26.0343 14.0986C25.7403 13.8047 25.3417 13.6396 24.926 13.6396H6.11821C5.70253 13.6396 5.30388 13.8047 5.00995 14.0986C4.71602 14.3925 4.55089 14.7912 4.55089 15.2069V24.6108C4.55089 25.0265 4.71602 25.4251 5.00995 25.719C5.30388 26.013 5.70253 26.1781 6.11821 26.1781H24.926C25.3417 26.1781 25.7403 26.013 26.0343 25.719C26.3282 25.4251 26.4933 25.0265 26.4933 24.6108V15.2069Z" fill="black"/>
</g>
<defs>
<clipPath id="clip0_82_779">
<rect width="37.3336" height="37.3336" fill="white" transform="translate(0 0.7146)"/>
</clipPath>
</defs>
</svg>
