<svg width="39" height="39" viewBox="0 0 39 39" fill="none" xmlns="http://www.w3.org/2000/svg">
<g id="rectangle.and.pencil.and.ellipsis">
<path id="Vector" d="M31.042 7.6894L31.9895 8.16077C33.6488 8.98628 34.5963 10.8706 34.2409 12.8734L33.2946 17.7506C34.117 18.1909 34.7912 18.8641 35.2326 19.6859C35.674 20.5076 35.8631 21.4414 35.7761 22.3702C35.6891 23.299 35.3299 24.1814 34.7435 24.9069C34.1571 25.6324 33.3697 26.1687 32.4798 26.4486L32.269 29.5871L32.2666 29.6144C31.858 34.1244 28.2812 37.3246 23.9974 37.3246H16.9054C12.4901 37.3246 9.04359 34.1126 8.63498 29.6144L8.63261 29.5859L8.42772 26.4817C7.52308 26.2213 6.71652 25.6973 6.11088 24.9766C5.50525 24.2559 5.12799 23.3712 5.02723 22.4352C4.92646 21.4993 5.10676 20.5545 5.54512 19.7214C5.98348 18.8883 6.66004 18.2047 7.48851 17.7577L6.51734 12.7549C6.28046 10.8706 7.22795 8.98628 8.88725 8.16077L9.83474 7.6894C10.4269 7.33646 11.0191 6.86508 11.6113 6.3937L13.7443 4.15525C15.0471 2.97799 16.9433 2.62505 18.6014 3.44937C19.8002 3.80231 21.0753 3.80231 22.2741 3.44937C24.0507 2.86074 26.0653 3.33094 27.4877 4.62781L29.2642 6.3937C29.738 6.98352 30.3314 7.33646 31.042 7.6894ZM30.734 17.1004C30.7835 16.4669 30.7688 15.83 30.6902 15.1995C30.3385 14.7494 30.0945 14.1643 30.0945 13.5792V12.9089C29.722 11.9873 29.202 11.1324 28.5548 10.3779C26.9796 10.0285 24.2402 9.57491 20.4988 9.57491C16.6969 9.57491 13.9303 10.0427 12.3669 10.3945C11.76 11.1215 11.2665 11.9361 10.903 12.8106V13.5804C10.903 14.2164 10.71 14.8524 10.2398 15.3167C10.1668 15.9099 10.1474 16.5084 10.1818 17.1051L10.2647 18.357C10.2795 18.5779 10.232 18.7985 10.1278 18.9938C10.0235 19.1891 9.86662 19.3513 9.67485 19.462L12.5825 28.0865C12.7009 28.6787 13.4115 28.7971 13.7668 28.4418L14.7143 27.6128C15.5434 26.9022 16.4909 26.6653 17.4384 26.6653H19.5311C19.3435 26.6673 19.158 26.6248 18.9898 26.5414C18.8217 26.458 18.6757 26.3361 18.5636 26.1855C18.4516 26.0349 18.3768 25.86 18.3453 25.6749C18.3138 25.4899 18.3265 25.3001 18.3823 25.1209L19.5548 21.3664C19.8189 20.5362 20.9915 20.5362 21.2437 21.3664L22.4162 25.1209C22.471 25.3 22.4829 25.4895 22.451 25.6741C22.419 25.8587 22.3441 26.0332 22.2323 26.1835C22.1205 26.3338 21.9749 26.4558 21.8073 26.5394C21.6397 26.6231 21.4547 26.6662 21.2674 26.6653H23.3602C24.4261 26.6653 25.3736 26.9022 26.0842 27.6128L27.0317 28.4418C27.387 28.7971 28.0976 28.5603 28.2161 28.0865L31.2161 19.4726C31.0301 19.3601 30.8788 19.1986 30.7785 19.0058C30.6782 18.813 30.6329 18.5963 30.6476 18.3795L30.7329 17.111L30.734 17.1004ZM7.37126 21.9278C7.37104 22.5016 7.57912 23.056 7.95684 23.488C8.33456 23.9199 8.85624 24.2001 9.42495 24.2764L9.20821 20.5871L9.21295 20.747C8.77118 20.747 8.38626 20.5267 8.13044 20.1904C7.89083 20.4119 7.69968 20.6806 7.56903 20.9797C7.43837 21.2787 7.37103 21.6015 7.37126 21.9278ZM31.6685 20.7435L31.4269 24.2681C31.8629 24.1996 32.2712 24.0106 32.6055 23.7224C32.9399 23.4343 33.1871 23.0584 33.3192 22.6372C33.4514 22.2161 33.4632 21.7664 33.3534 21.3388C33.2436 20.9113 33.0165 20.523 32.6977 20.2176C32.4774 20.5457 32.1269 20.7387 31.6685 20.7435ZM16.8462 29.6262V31.4028C16.8462 32.4687 17.7937 33.4162 18.978 33.4162C19.2149 33.4162 19.3333 33.1793 19.3333 33.0609V32.9424C19.3333 32.3502 19.8071 31.8765 20.3993 31.8765C20.9915 31.8765 21.4652 32.3502 21.4652 32.9424V33.0609C21.4652 33.2977 21.7021 33.4162 21.8205 33.4162C22.8864 33.4162 23.9524 32.5871 23.9524 31.4028V29.6262C23.9524 29.034 23.5426 28.5603 22.768 28.5603H18.0305C17.2797 28.5603 16.8462 29.034 16.8462 29.6262Z" fill="white"/>
</g>
</svg>
