<svg width="38" height="38" viewBox="0 0 38 38" fill="none" xmlns="http://www.w3.org/2000/svg">
<g id="gift">
<path id="gift_2" d="M12.6014 30.0534H25.3866C27.6015 30.0534 28.832 28.8581 28.832 26.6432V19.6354H28.9023C29.9218 19.3424 30.4609 18.4752 30.4609 17.1861V14.233C30.4609 12.6275 29.5702 11.6314 27.9765 11.6314H25.9608C26.5937 10.9986 26.9687 10.1431 26.9687 9.14701C26.9687 6.80324 25.1054 5.13916 22.7733 5.13916C21.0389 5.13916 19.5741 6.11182 18.9881 7.84621C18.4139 6.11182 16.9491 5.13916 15.2147 5.13916C12.8826 5.13916 11.0193 6.80324 11.0193 9.14701C11.0193 10.1431 11.3943 10.9986 12.0271 11.6314H10.0115C8.47633 11.6314 7.5271 12.6275 7.5271 14.233V17.1861C7.5271 18.4752 8.06617 19.3424 9.07399 19.6354H9.1443V26.6432C9.1443 28.8581 10.3865 30.0534 12.6014 30.0534ZM17.8748 11.6314H16.117C14.324 11.6314 13.2928 10.647 13.2928 9.36966C13.2928 8.12747 14.16 7.36574 15.4256 7.36574C16.7733 7.36574 17.8748 8.44387 17.8748 10.0962V11.6314ZM20.1131 11.6314V10.0962C20.1131 8.44387 21.2147 7.36574 22.5624 7.36574C23.828 7.36574 24.6952 8.12747 24.6952 9.36966C24.6952 10.647 23.664 11.6314 21.871 11.6314H20.1131ZM17.8045 17.6783H10.6326C10.0701 17.6783 9.83571 17.4439 9.83571 16.8814V14.5377C9.83571 13.9752 10.0701 13.7408 10.6326 13.7408H17.8045V17.6783ZM20.1835 17.6783V13.7408H27.3671C27.9179 13.7408 28.1406 13.9752 28.1406 14.5377V16.9049C28.1406 17.4674 27.9179 17.6783 27.3671 17.6783H20.1835ZM17.8045 27.9206H12.9061C11.9803 27.9206 11.4646 27.405 11.4646 26.4909V19.7877H17.8045V27.9206ZM20.1835 27.9206V19.7877H26.5233V26.4909C26.5233 27.405 26.0077 27.9206 25.0819 27.9206H20.1835Z" fill="#151515"/>
</g>
</svg>
