<svg width="38" height="38" viewBox="0 0 38 38" fill="none" xmlns="http://www.w3.org/2000/svg">
<g id="clarity:lightbulb-solid">
<path id="Vector" d="M24.9306 30.3896H12.6533C12.4316 30.3896 12.219 30.4777 12.0622 30.6345C11.9055 30.7912 11.8174 31.0039 11.8174 31.2256C11.8174 31.4472 11.9055 31.6599 12.0622 31.8166C12.219 31.9734 12.4316 32.0615 12.6533 32.0615H24.9306C25.1523 32.0615 25.3649 31.9734 25.5217 31.8166C25.6784 31.6599 25.7665 31.4472 25.7665 31.2256C25.7665 31.0039 25.6784 30.7912 25.5217 30.6345C25.3649 30.4777 25.1523 30.3896 24.9306 30.3896Z" fill="white"/>
<path id="Vector_2" d="M22.9872 34.0615H14.6281C14.4064 34.0615 14.1938 34.1496 14.0371 34.3064C13.8803 34.4631 13.7922 34.6757 13.7922 34.8974C13.7922 35.1191 13.8803 35.3317 14.0371 35.4885C14.1938 35.6453 14.4064 35.7333 14.6281 35.7333H22.9872C23.2089 35.7333 23.4215 35.6453 23.5782 35.4885C23.735 35.3317 23.8231 35.1191 23.8231 34.8974C23.8231 34.6757 23.735 34.4631 23.5782 34.3064C23.4215 34.1496 23.2089 34.0615 22.9872 34.0615Z" fill="white"/>
<path id="Vector_3" d="M18.8078 2.35107C15.7595 2.35107 12.836 3.56201 10.6806 5.71749C8.52507 7.87297 7.31414 10.7964 7.31414 13.8447C7.29593 15.5152 7.653 17.1685 8.35902 18.6825C8.70881 19.3269 9.09971 19.9482 9.52928 20.5424C10.3663 21.6644 11.0677 22.8814 11.619 24.1681C11.9984 25.5301 12.2055 26.9342 12.2355 28.3476H18.1809V22.5799L15.1925 19.3094L18.3272 16.1748C18.4862 16.0307 18.6945 15.9533 18.909 15.9586C19.1235 15.9639 19.3278 16.0515 19.4795 16.2032C19.6312 16.3549 19.7188 16.5592 19.7241 16.7737C19.7293 16.9882 19.6519 17.1965 19.5079 17.3555L17.533 19.3303L19.8527 21.9425V28.3894H25.3905C25.4206 26.976 25.6277 25.5718 26.007 24.2099C26.5583 22.9232 27.2597 21.7062 28.0968 20.5842C28.5252 19.9695 28.9126 19.3273 29.2566 18.6616C29.9626 17.1476 30.3197 15.4943 30.3014 13.8238C30.2959 10.7791 29.0825 7.86106 26.9277 5.7101C24.7728 3.55914 21.8525 2.35107 18.8078 2.35107ZM19.278 12.5386L16.4255 15.3911C16.3494 15.4751 16.2572 15.5427 16.1542 15.5898C16.0513 15.637 15.9398 15.6627 15.8266 15.6655C15.7134 15.6683 15.6008 15.6481 15.4957 15.606C15.3905 15.564 15.295 15.501 15.215 15.421C15.1349 15.3409 15.0719 15.2454 15.0299 15.1402C14.9878 15.0351 14.9676 14.9225 14.9704 14.8093C14.9732 14.6961 14.9989 14.5846 15.0461 14.4817C15.0933 14.3788 15.1608 14.2865 15.2448 14.2104L18.0973 11.3579C18.1733 11.274 18.2656 11.2064 18.3685 11.1592C18.4715 11.1121 18.5829 11.0863 18.6961 11.0835C18.8093 11.0808 18.9219 11.101 19.0271 11.143C19.1322 11.1851 19.2277 11.248 19.3078 11.3281C19.3879 11.4082 19.4508 11.5037 19.4929 11.6088C19.5349 11.714 19.5552 11.8266 19.5524 11.9398C19.5496 12.053 19.5238 12.1644 19.4767 12.2674C19.4295 12.3703 19.3619 12.4626 19.278 12.5386Z" fill="white"/>
</g>
</svg>
