<svg width="54" height="54" viewBox="0 0 54 54" fill="none" xmlns="http://www.w3.org/2000/svg">
<g id="game-icons:scissors" clip-path="url(#clip0_82_709)">
<path id="Vector" d="M35.0721 10.6088C35.034 10.571 34.995 10.5342 34.9552 10.4984C34.7413 10.3063 34.4999 10.1422 34.2305 10.0154C33.1534 9.50777 31.9134 9.7146 30.855 10.3434C29.7967 10.9723 28.8668 12.0241 28.2424 13.3621C28.1442 13.5737 28.0552 13.7895 27.9759 14.0089L27.0434 15.9936L28.9604 19.7861C29.1285 19.9161 29.3125 20.0289 29.5108 20.1224C30.588 20.6299 31.8279 20.4232 32.8864 19.7942C33.9447 19.1654 34.8746 18.1136 35.499 16.7755C36.1233 15.4376 36.3324 14.0457 36.1368 12.8276C35.9993 11.9711 35.6446 11.1797 35.0721 10.6089L35.0721 10.6088ZM34.0495 11.5264C34.417 11.8571 34.6743 12.3712 34.7824 13.0451C34.9268 13.9438 34.7726 15.0849 34.2549 16.1945C33.7372 17.304 32.9623 18.1502 32.1841 18.6128C31.4058 19.0752 30.6785 19.1532 30.0951 18.8783C29.5118 18.6033 29.1046 17.9895 28.9604 17.0907C28.9122 16.7916 28.8984 16.4648 28.9187 16.1222L29.5889 13.7322C30.1032 12.7261 30.829 11.9542 31.5572 11.5216C32.3353 11.0591 33.061 10.9827 33.6445 11.2576C33.7919 11.3269 33.9283 11.4174 34.0494 11.5262L34.0495 11.5264ZM22.7425 11.3991C22.3808 11.0618 21.9956 10.778 21.5921 10.5536C20.516 9.95561 19.269 9.78644 18.2068 10.3249C17.1448 10.8634 16.5448 11.966 16.3844 13.1893C16.2242 14.4124 16.4718 15.7995 17.1344 17.119C17.7972 18.4384 18.7587 19.4611 19.8348 20.0592C20.7533 20.5695 21.7947 20.7689 22.7407 20.4815L22.7408 20.4881L24.8133 19.867L24.9784 20.3924C24.9759 20.3977 24.9761 20.3985 24.9737 20.4039L26.4221 25.0215L26.422 25.0248L32.6785 45.0687C35.5358 43.6286 36.3539 37.4682 32.5957 30.0109L24.5777 14.1392C24.4915 13.9206 24.3957 13.7059 24.2907 13.4957C23.8766 12.671 23.345 11.9614 22.7424 11.3993L22.7425 11.3991ZM21.8023 12.4032C21.8996 12.4941 21.9936 12.5886 22.084 12.6864C22.4023 13.0309 22.6987 13.4385 22.9508 13.8966L23.693 16.2756C23.723 16.618 23.7187 16.9448 23.6794 17.2453C23.5611 18.1477 23.1719 18.7732 22.5968 19.0646C22.0215 19.3563 21.2923 19.2993 20.501 18.8596C19.7097 18.4199 18.9107 17.5965 18.3611 16.5023C17.8116 15.4081 17.6261 14.2704 17.7443 13.3679C17.8625 12.4656 18.2533 11.8417 18.8285 11.5501C19.4038 11.2585 20.1314 11.3138 20.9227 11.7536C21.2193 11.9184 21.5166 12.1364 21.8023 12.4033L21.8023 12.4032ZM24.1088 22.2429C22.9195 24.7766 21.6643 27.4502 20.4184 30.1106C16.8772 37.6732 17.8731 43.8075 20.7708 45.1644L25.7409 27.449L24.1087 22.243L24.1088 22.2429Z" fill="white"/>
</g>
<defs>
<clipPath id="clip0_82_709">
<rect width="37.6156" height="37.6156" fill="white" transform="translate(26.2112) rotate(44.1719)"/>
</clipPath>
</defs>
</svg>
