<svg width="53" height="53" viewBox="0 0 53 53" fill="none" xmlns="http://www.w3.org/2000/svg">
<g id="game-icons:spray" clip-path="url(#clip0_82_739)">
<path id="Vector" d="M19.4307 12.7604C19.395 12.7798 19.3611 12.8022 19.3295 12.8276L19.3077 16.8817C19.3558 16.921 19.4657 16.9912 19.6349 17.0561C20.0017 17.1966 20.5966 17.3058 21.2567 17.3093C21.9167 17.3128 22.5127 17.2101 22.881 17.0735C23.0508 17.0106 23.1614 16.9416 23.2101 16.9026L23.2157 15.8757C23.1898 15.8775 23.164 15.8793 23.1377 15.8792C22.5642 15.8761 22.1017 15.4085 22.1048 14.835C22.1079 14.2616 22.5753 13.7994 23.1489 13.8025C23.1751 13.8026 23.2009 13.8048 23.2268 13.8069L23.232 12.8488C23.1839 12.8094 23.0739 12.7391 22.9047 12.6743C22.5379 12.5339 21.943 12.4247 21.2829 12.4212C20.6228 12.4175 20.0268 12.5202 19.6586 12.6568C19.5802 12.6856 19.5039 12.7202 19.4307 12.7604ZM17.3229 18.067C17.2571 18.1033 17.1922 18.1412 17.1282 18.1805C16.1177 18.8007 15.5866 19.587 15.5815 20.541C15.5813 20.5816 15.6035 20.6877 15.8289 20.8758C16.0543 21.0639 16.4529 21.282 16.9746 21.4675C18.018 21.8384 19.5437 22.0921 21.2307 22.1012C22.9178 22.1102 24.4462 21.8729 25.4936 21.5134C26.0173 21.3338 26.4182 21.1198 26.6455 20.9341C26.8729 20.7484 26.8963 20.6427 26.8965 20.6022L26.8964 20.6021C26.9013 19.7269 26.378 18.9177 25.3694 18.2692C25.0575 18.0687 24.7016 17.8895 24.3106 17.7371C24.2586 17.8023 24.2024 17.8614 24.1448 17.9129C23.9164 18.1175 23.6527 18.2518 23.3583 18.361C22.77 18.579 22.046 18.6866 21.2494 18.6824C20.4527 18.6781 19.7299 18.5627 19.1438 18.3382C18.8508 18.2259 18.5883 18.0889 18.3622 17.8818C18.2958 17.8205 18.2354 17.7532 18.1816 17.6806C17.8718 17.7932 17.5839 17.9227 17.3231 18.067L17.3229 18.067ZM23.7037 14.8363L45.3728 24.1241L36.9402 9.33456L23.7035 14.8363L23.7037 14.8363ZM15.5716 22.3471L15.4827 38.8464L15.4827 38.8474C15.4826 38.9229 15.5164 39.04 15.7401 39.2345C15.9648 39.4298 16.3603 39.653 16.8802 39.8422C17.92 40.2205 19.4444 40.4746 21.1315 40.4837C22.8185 40.4927 24.3459 40.255 25.3896 39.888C25.9116 39.7045 26.3094 39.4855 26.536 39.2927C26.7628 39.1 26.7972 38.9831 26.7977 38.9076L26.7979 38.9076L26.8869 22.408C26.6019 22.5602 26.2858 22.6932 25.9393 22.8122C24.6863 23.2424 23.04 23.484 21.2234 23.4742C19.4067 23.4645 17.7631 23.205 16.5148 22.7614C16.1696 22.6387 15.8549 22.5023 15.5716 22.3471ZM20.0656 25.2629C20.3885 25.0864 20.7288 24.993 21.0788 24.9948L21.0786 24.9943C22.3231 25.0011 23.4316 26.2126 24.0696 28.0657C23.3076 27.0949 22.2411 26.48 21.0706 26.474C19.9002 26.4681 18.8272 27.0711 18.0549 28.0336C18.5277 26.7067 19.2401 25.7138 20.0656 25.2629ZM17.9195 35.4326C18.6878 36.4804 19.7906 37.1612 21.0133 37.168C22.2558 37.1742 23.3921 36.4877 24.1733 35.4184L24.1735 35.4188C23.5404 37.5051 22.343 38.8938 21.0041 38.8866C19.6766 38.8795 18.5343 37.4962 17.9196 35.4328L17.9195 35.4326ZM15.4725 40.7097L15.4661 41.8999C15.4656 41.9752 15.4989 42.0924 15.7235 42.2876C15.9482 42.4829 16.3436 42.7062 16.8635 42.8954C17.9028 43.2735 19.4266 43.5277 21.1128 43.537L21.1149 43.537L21.115 43.5369C22.802 43.5459 24.3292 43.3082 25.373 42.9411C25.8949 42.7577 26.2928 42.5386 26.5195 42.3458C26.7462 42.1531 26.7807 42.0361 26.7811 41.9608L26.7876 40.7706C26.5036 40.9264 26.189 41.0623 25.8448 41.1834C24.5881 41.6253 22.9405 41.8665 21.1239 41.8567C19.3073 41.8469 17.6625 41.588 16.4106 41.1325C16.0678 41.0078 15.7547 40.8686 15.4725 40.7097Z" fill="white"/>
</g>
<defs>
<clipPath id="clip0_82_739">
<rect width="37.6156" height="37.6156" fill="white" transform="translate(0.85083 19.5073) rotate(-29.6908)"/>
</clipPath>
</defs>
</svg>
