<svg width="39" height="38" viewBox="0 0 39 38" fill="none" xmlns="http://www.w3.org/2000/svg">
<g id="Frame 1000002321">
<path id="Vector" d="M16.874 2.99976C13.1944 2.99976 9.66547 4.46148 7.0636 7.06335C4.46172 9.66523 3 13.1941 3 16.8737V26.1231C3 27.3496 3.48724 28.5259 4.35453 29.3932C5.22182 30.2605 6.39813 30.7477 7.62466 30.7477H9.75509C10.3278 30.7477 10.8891 30.5882 11.3762 30.2871C11.8633 29.9859 12.2569 29.555 12.5129 29.0428L12.7827 28.5032C12.2841 28.1551 11.8177 27.763 11.3891 27.3316C9.69497 25.6267 8.39544 23.1232 8.39544 19.9569C8.39544 18.8238 8.58659 17.6969 8.93344 16.6317C9.0876 16.1585 9.51461 16.103 9.93699 16.103C12.5422 16.103 14.8468 14.8096 16.2435 12.8272C16.3146 12.726 16.409 12.6435 16.5188 12.5865C16.6285 12.5295 16.7503 12.4998 16.874 12.4998C16.9976 12.4998 17.1195 12.5295 17.2292 12.5865C17.3389 12.6435 17.4334 12.726 17.5045 12.8272C18.2151 13.8398 19.1592 14.6662 20.257 15.2365C21.3548 15.8067 22.5739 16.1039 23.811 16.103C24.2334 16.103 24.6619 16.1585 24.8145 16.6317C25.1668 17.7051 25.3484 18.8271 25.3525 19.9569C25.3525 23.1247 24.053 25.6267 22.3588 27.3316C21.9195 27.7741 21.4493 28.1656 20.9653 28.5032L21.235 29.0428C21.491 29.555 21.8846 29.9859 22.3717 30.2871C22.8589 30.5882 23.4202 30.7477 23.9929 30.7477H26.1233C27.3498 30.7477 28.5262 30.2605 29.3934 29.3932C30.2607 28.5259 30.748 27.3496 30.748 26.1231V16.8737C30.748 13.1941 29.2863 9.66523 26.6844 7.06335C24.0825 4.46148 20.5536 2.99976 16.874 2.99976Z" fill="white"/>
</g>
</svg>
